# AST/ASF file generated using VICON BodyLanguage
# -----------------------------------------------
:version 1.10
:name VICON
:units
  mass 1.0
  length 0.45
  angle deg
:documentation
   .ast/.asf automatically generated from VICON data using
   VICON BodyBuilder and BodyLanguage model FoxedUp or BRILLIANT.MOD
:root
   order TX TY TZ RX RY RZ
   axis XYZ
   position 0 0 0  
   orientation 0 0 0 
:bonedata
  begin
     id 1 
     name lhipjoint
     direction 0.63403 -0.759788 0.143974 
     length 2.51904 
     axis 0 0 0  XYZ
  end
  begin
     id 2 
     name lfemur
     direction 0.34202 -0.939693 0  
     length 7.42313  
     axis 0 0 20  XYZ
    dof rx ry rz
    limits (-160.0 20.0)
           (-70.0 70.0)
           (-60.0 70.0)
  end
  begin
     id 3 
     name ltibia
     direction 0.34202 -0.939693 0   
     length 8.10141   
     axis 0 0 20   XYZ
    dof rx
    limits (-10.0 170.0)
  end
  begin
     id 4 
     name lfoot
     direction 0.0927455 -0.254816 0.962532   
     length 2.14078   
     axis -90 7.62852e-016 20   XYZ
    dof rx rz
    limits (-45.0 90.0)
           (-70.0 20.0)
  end
  begin
     id 5 
     name ltoes
     direction 1.53556e-011 -4.21949e-011 1   
     length 1.07182   
     axis -90 7.62852e-016 20   XYZ
    dof rx
    limits (-90.0 20.0)
  end
  begin
     id 6 
     name rhipjoint
     direction -0.659892 -0.738223 0.139888   
     length 2.59263  
     axis 0 0 0  XYZ 
  end
  begin
     id 7 
     name rfemur
     direction -0.34202 -0.939693 0   
     length 7.58575   
     axis 0 0 -20   XYZ
    dof rx ry rz
    limits (-160.0 20.0)
           (-70.0 70.0)
           (-70.0 60.0)
  end
  begin
     id 8 
     name rtibia
     direction -0.34202 -0.939693 0   
     length 8.19358   
     axis 0 0 -20   XYZ
    dof rx
    limits (-10.0 170.0)
 end
 begin
     id 9 
     name rfoot
     direction -0.0856543 -0.235333 0.968133   
     length 2.13415  
     axis -90 -7.62852e-016 -20   XYZ
    dof rx rz
    limits (-45.0 90.0)
           (-20.0 70.0)
  end
  begin
     id 10 
     name rtoes
     direction -1.53551e-011 -4.21811e-011 1   
     length 1.07055   
     axis -90 -7.62852e-016 -20   XYZ
    dof rx
    limits (-90.0 20.0)
  end
  begin
     id 11 
     name lowerback
     direction 0.025219 0.998394 -0.0507326   
     length 1.91844   
     axis 0 0 0   XYZ
    dof rx ry rz
    limits (-20.0 45.0)
           (-30.0 30.0)
           (-30.0 30.0)
  end
  begin
     id 12 
     name upperback
     direction 0.0213103 0.99967 -0.0143101   
     length 1.92246   
     axis 0 0 0   XYZ
    dof rx ry rz
    limits (-20.0 45.0)
           (-30.0 30.0)
           (-30.0 30.0)
  end
  begin
     id 13 
     name thorax
     direction 0.00920974 0.99991 0.00971518   
     length 1.92239   
     axis 0 0 0   XYZ
    dof rx ry rz
    limits (-20.0 45.0)
           (-30.0 30.0)
           (-30.0 30.0)
  end
  begin
     id 14 
     name lowerneck
     direction 0.0598257 0.997249 0.0437612   
     length 3.13679   
     axis 0 0 0   XYZ
    dof rx ry rz
    limits (-20.0 45.0)
           (-30.0 30.0)
           (-30.0 30.0)
  end
  begin
     id 15 
     name upperneck
     direction -0.035342 0.999338 0.00863891   
     length 3.16283   
     axis 0 0 0   XYZ
    dof rx ry rz
    limits (-20.0 45.0)
           (-30.0 30.0)
           (-30.0 30.0)
  end
  begin
     id 16
     name head
     direction 0.37144 0.811566 0.450991  
     length 1.2838  
     axis 0 0 0   XYZ
    dof rx ry rz
    limits (-20.0 45.0)
           (-30.0 30.0)
           (-30.0 30.0)
  end
  begin
     id 17 
     name lclavicle
     direction 0.961094 0.274654 -0.0293862  
     length 3.63466  
     axis 0 0 0   XYZ
    dof ry rz
    limits (-20.0 10.0)
           (0.0 20.0)
  end
  begin
     id 18 
     name lhumerus
     direction 1 -4.48963e-011 1.10303e-027   
     length 5.12842   
     axis 180 -30 -90   XYZ
    dof rx ry rz
    limits (-60.0 90.0)
           (-90.0 90.0)
           (-90.0 90.0)
  end
  begin
     id 19
     name lradius
     direction 1 -4.48968e-011 4.13199e-027   
     length 3.47396   
     axis 180 -30 -90   XYZ
    dof rx
    limits (-10.0 170.0)
  end
  begin
     id 20
     name lwrist
     direction 1 -4.48948e-011 9.12708e-027   
     length 1.73698   
     axis -6.84618e-015 90 90   XYZ
    dof ry
    limits (-180.0 0.0)
 end
  begin
     id 21 
     name lhand
     direction 1 -4.49057e-011 1.82749e-026   
     length 0.728607   
     axis -1.16502e-014 90 90   XYZ
    dof rx rz
    limits (-90.0 90.0)
           (-45.0 45.0)
  end
  begin
     id 22 
     name lfingers
     direction 1 -4.48912e-011 3.64949e-026   
     length 0.587422   
     axis -2.33008e-014 90 90   XYZ
    dof rx
    limits (0.0 90.0)
  end
  begin
     id 23
     name lthumb
     direction 0.707107 -6.34995e-011 0.707107   
     length 0.843424   
     axis -90 45 5.69224e-014   XYZ
    dof rx rz
    limits (-45.0 45.0)
           (-45.0 45.0)
  end
  begin
     id 24 
     name rclavicle
     direction -0.90514 0.421881 -0.0523369   
     length 3.57139  
     axis 0 0 0   XYZ 
    dof ry rz
    limits (-10.0 20.0)
           (-20.0 0.0)
  end
  begin
     id 25 
     name rhumerus
     direction -1 -4.48954e-011 -1.76662e-027  
     length 5.48477   
     axis 180 30 90   XYZ
    dof rx ry rz
    limits (-90.0 60.0)
           (-90.0 90.0)
           (-90.0 90.0)
  end
  begin
     id 26 
     name rradius
     direction -1 -4.48982e-011 1.26841e-027   
     length 3.47856   
     axis 180 30 90   XYZ
    dof rx
    limits (-10.0 170.0)
  end
  begin
     id 27 
     name rwrist
     direction -1 -4.49037e-011 9.13554e-027   
     length 1.73928   
     axis -6.84618e-015 -90 -90   XYZ
    dof ry
    limits (-180.0 0.0)
  end
  begin
     id 28
     name rhand
     direction -1 -4.48871e-011 1.82397e-026   
     length 0.709974   
     axis -1.16502e-014 -90 -90   XYZ
    dof rx rz
    limits (-90.0 90.0)
           (-45.0 45.0)
  end
  begin
     id 29
     name rfingers
     direction -1 -4.48994e-011 3.65258e-026   
     length 0.572399   
     axis -2.33008e-014 -90 -90   XYZ
    dof rx
    limits (0.0 90.0)
  end
  begin
     id 30
     name rthumb
     direction -0.707107 -6.34861e-011 0.707107   
     length 0.821855   
     axis -90 -45 -5.69224e-014   XYZ
    dof rx rz
    limits (-45.0 45.0)
           (-45.0 45.0)
  end
:hierarchy
  begin
    root lhipjoint rhipjoint lowerback
    lhipjoint lfemur
    lfemur ltibia
    ltibia lfoot
    lfoot ltoes
    rhipjoint rfemur
    rfemur rtibia
    rtibia rfoot
    rfoot rtoes
    lowerback upperback
    upperback thorax
    thorax lowerneck lclavicle rclavicle
    lowerneck upperneck
    upperneck head
    lclavicle lhumerus
    lhumerus lradius
    lradius lwrist
    lwrist lhand lthumb
    lhand lfingers
    rclavicle rhumerus
    rhumerus rradius
    rradius rwrist
    rwrist rhand rthumb
    rhand rfingers
  end

#!OML:ASF F:\VICON\USERDATA\INSTALL\Justin1\Justin1.ASF
:FULLY-SPECIFIED
:DEGREES
3291
root -7.0986 17.7448 8.73682 2.80177 -10.1747 -5.21375
lowerback 8.68406 -1.33544 -0.199585
upperback 1.34906 -1.63412 4.68388
thorax -3.32586 -0.796648 5.18413
lowerneck -2.93128 -15.3157 -10.4436
upperneck 31.5292 -23.8549 8.26856
head 13.4771 -11.0892 1.56873
rclavicle 4.27387e-015 -2.38542e-015
rhumerus -37.8794 -24.1948 -68.7291
rradius 26.0749
rwrist 1.81266
rhand -32.1212 15.2426
rfingers 7.12502
rthumb -5.36577 -14.6695
lclavicle 4.27387e-015 -2.38542e-015
lhumerus -37.8218 19.129 73.6698
lradius 36.2965
lwrist -4.82824
lhand -11.7249 32.7393
lfingers 7.12502
lthumb 14.3221 62.2254
rfemur -15.479 9.60921 10.5137
rtibia 31.6137
rfoot -11.9517 -6.36624
rtoes -0.770682
lfemur -13.4288 -22.3018 3.50475
ltibia 30.6954
lfoot -17.4163 -0.849664
ltoes -21.1255
3292
root -7.23245 17.7543 8.70541 2.93698 -10.3369 -5.57656
lowerback 8.78328 -1.32112 0.124223
upperback 1.43035 -1.58249 4.78171
thorax -3.30736 -0.775738 5.09884
lowerneck -3.26806 -15.2662 -10.3035
upperneck 31.677 -23.7253 8.06222
head 13.5388 -11.0162 1.46638
rclavicle 7.95139e-015 -1.59028e-015
rhumerus -37.3409 -23.9562 -69.0432
rradius 25.979
rwrist 1.93274
rhand -32.1029 15.1394
rfingers 7.12502
rthumb -5.34808 -14.7731
lclavicle 7.95139e-015 -1.59028e-015
lhumerus -37.7959 20.027 73.4267
lradius 36.2146
lwrist -5.0597
lhand -11.9872 32.5887
lfingers 7.12502
lthumb 14.0693 62.0924
rfemur -15.6819 9.25412 11.5665
rtibia 31.6521
rfoot -12.2507 -7.19945
rtoes -0.927491
lfemur -13.7225 -22.1488 4.32681
ltibia 31.2128
lfoot -16.4615 -0.987622
ltoes -19.7258
3293
root -7.36772 17.7677 8.67655 3.03558 -10.6233 -5.96326
lowerback 8.86186 -1.26933 0.418556
upperback 1.49356 -1.48194 4.92426
thorax -3.29788 -0.729613 5.07199
lowerneck -3.34604 -15.1944 -10.3606
upperneck 31.7406 -23.5805 7.96994
head 13.5578 -10.9621 1.45833
rclavicle -1.21259e-014 7.95139e-015
rhumerus -36.9546 -23.4871 -69.3365
rradius 26.0744
rwrist 1.76015
rhand -32.2034 14.8132
rfingers 7.12502
rthumb -5.44516 -15.0968
lclavicle -1.21259e-014 7.95139e-015
lhumerus -37.89 20.8333 73.2715
lradius 36.1767
lwrist -5.1692
lhand -12.2183 32.4909
lfingers 7.12502
lthumb 13.8466 62.01
rfemur -15.7916 9.15456 12.5985
rtibia 31.6122
rfoot -12.4934 -7.61867
rtoes 0.162175
lfemur -13.917 -21.8626 5.11006
ltibia 31.8009
lfoot -15.5247 -1.02721
ltoes -19.2216
3294
root -7.49871 17.7848 8.64748 3.16465 -10.7922 -5.9685
lowerback 8.72375 -1.23084 0.47307
upperback 1.4822 -1.42984 4.92364
thorax -3.23857 -0.70488 5.02966
lowerneck -3.11858 -15.0676 -10.4419
upperneck 31.7425 -23.3882 7.95748
head 13.4985 -10.901 1.52164
rclavicle -4.52235e-014 2.70347e-014
rhumerus -36.7417 -23.1467 -69.4867
rradius 26.1499
rwrist 1.67003
rhand -32.1636 14.7938
rfingers 7.12502
rthumb -5.40674 -15.1172
lclavicle -4.52235e-014 2.70347e-014
lhumerus -38.087 21.3871 73.1623
lradius 36.1827
lwrist -5.19398
lhand -12.2827 32.3137
lfingers 7.12502
lthumb 13.7845 61.837
rfemur -15.9229 9.04801 13.1064
rtibia 31.5327
rfoot -12.6753 -7.62376
rtoes 1.07076
lfemur -14.2945 -21.6084 5.45915
ltibia 32.4622
lfoot -14.5876 -0.805022
ltoes -19.6332
3295
root -7.62641 17.8061 8.61417 3.34003 -10.9411 -6.06142
lowerback 8.5925 -1.22278 0.609718
upperback 1.50609 -1.41267 4.91447
thorax -3.14566 -0.69918 4.93485
lowerneck -3.18897 -14.9389 -10.1828
upperneck 31.9011 -23.1496 7.67544
head 13.4695 -10.7925 1.42286
rclavicle 2.67365e-014 -3.49861e-014
rhumerus -36.3672 -22.8254 -69.7459
rradius 26.1467
rwrist 1.64044
rhand -32.1088 14.802
rfingers 7.12502
rthumb -5.35379 -15.1104
lclavicle 2.67365e-014 -3.49861e-014
lhumerus -38.2164 21.9561 73.0281
lradius 36.2087
lwrist -5.24409
lhand -12.2938 32.1856
lfingers 7.12502
lthumb 13.7738 61.7096
rfemur -16.1209 9.20117 13.6177
rtibia 31.4583
rfoot -12.6088 -7.57089
rtoes 0.198905
lfemur -14.733 -21.2179 5.85344
ltibia 33.169
lfoot -13.5759 -0.470138
ltoes -18.8681
3296
root -7.75028 17.8274 8.57956 3.53131 -11.1336 -6.2628
lowerback 8.53757 -1.22187 0.878649
upperback 1.55522 -1.39062 4.95326
thorax -3.07131 -0.692182 4.81717
lowerneck -3.38414 -14.8123 -10.0446
upperneck 32.0598 -22.9039 7.43459
head 13.4907 -10.6819 1.34226
rclavicle 6.85807e-015 -3.10104e-014
rhumerus -35.9116 -22.1751 -70.1551
rradius 26.278
rwrist 1.18526
rhand -32.2885 14.6565
rfingers 7.12502
rthumb -5.52725 -15.2515
lclavicle 6.85807e-015 -3.10104e-014
lhumerus -38.3113 22.5372 72.9599
lradius 36.2314
lwrist -5.30782
lhand -12.2856 32.1368
lfingers 7.12502
lthumb 13.7817 61.6604
rfemur -16.3517 9.52135 14.1855
rtibia 31.3902
rfoot -12.4817 -7.35941
rtoes -0.452423
lfemur -15.1578 -20.8081 6.30417
ltibia 33.916
lfoot -12.6788 -0.0701103
ltoes -17.5162
3297
root -7.87063 17.8469 8.54516 3.70224 -11.298 -6.32222
lowerback 8.51427 -1.20659 1.021
upperback 1.57455 -1.35906 4.96841
thorax -3.04365 -0.678285 4.74747
lowerneck -3.51096 -14.6942 -10.0618
upperneck 32.1341 -22.6838 7.31924
head 13.5073 -10.5912 1.32942
rclavicle -6.75868e-015 -2.8625e-014
rhumerus -35.5603 -21.5926 -70.4641
rradius 26.4963
rwrist 0.689408
rhand -32.4812 14.6142
rfingers 7.12502
rthumb -5.71334 -15.2888
lclavicle -6.75868e-015 -2.8625e-014
lhumerus -38.4244 22.9613 72.9867
lradius 36.2842
lwrist -5.26817
lhand -12.3121 32.0298
lfingers 7.12502
lthumb 13.7562 61.555
rfemur -16.5776 9.79208 14.5706
rtibia 31.2959
rfoot -12.4111 -7.03747
rtoes -0.159911
lfemur -15.658 -20.5104 6.57212
ltibia 34.7115
lfoot -11.7803 0.414131
ltoes -16.2748
3298
root -7.99018 17.8692 8.51319 3.79306 -11.5428 -6.31025
lowerback 8.58063 -1.16155 0.9872
upperback 1.60932 -1.30145 4.96791
thorax -3.04796 -0.64966 4.76131
lowerneck -3.79288 -14.5711 -9.77837
upperneck 32.1785 -22.4099 7.00148
head 13.4617 -10.4616 1.20228
rclavicle -3.57812e-015 1.27222e-014
rhumerus -35.1989 -21.3609 -70.6327
rradius 26.6049
rwrist 0.665591
rhand -32.5309 14.7692
rfingers 7.12502
rthumb -5.76134 -15.1325
lclavicle -3.57812e-015 1.27222e-014
lhumerus -38.5262 23.2644 73.0699
lradius 36.3772
lwrist -5.02329
lhand -12.5429 31.8521
lfingers 7.12502
lthumb 13.5338 61.3923
rfemur -16.7261 10.0504 14.8998
rtibia 31.1855
rfoot -12.3417 -6.73923
rtoes -0.252849
lfemur -16.0688 -20.2197 6.69172
ltibia 35.5225
lfoot -10.5771 0.865453
ltoes -13.9628
3299
root -8.10667 17.8913 8.47981 3.87805 -11.768 -6.41177
lowerback 8.68543 -1.15048 1.079
upperback 1.65723 -1.27611 4.99377
thorax -3.05979 -0.638349 4.73598
lowerneck -4.04469 -14.3905 -9.46378
upperneck 32.1293 -22.0774 6.7795
head 13.375 -10.2982 1.12104
rclavicle 3.97569e-015 -1.59028e-015
rhumerus -34.8062 -20.9128 -70.9113
rradius 26.8223
rwrist 0.436857
rhand -32.5041 14.7217
rfingers 7.12502
rthumb -5.73545 -15.1806
lclavicle 3.97569e-015 -1.59028e-015
lhumerus -38.5699 23.4932 73.1919
lradius 36.3727
lwrist -4.86322
lhand -12.7984 31.4915
lfingers 7.12502
lthumb 13.2876 61.0479
rfemur -16.8409 10.1891 15.3827
rtibia 31.0756
rfoot -12.2532 -6.53186
rtoes -0.79199
lfemur -16.4567 -19.919 6.87526
ltibia 36.3079
lfoot -9.237 1.40926
ltoes -11.0681
3300
root -8.21837 17.912 8.44519 4.0348 -11.8464 -6.49115
lowerback 8.6685 -1.16382 1.27768
upperback 1.64303 -1.27623 4.97965
thorax -3.06987 -0.640019 4.60787
lowerneck -4.00895 -14.2387 -9.36292
upperneck 32.1004 -21.8732 6.81403
head 13.3236 -10.1983 1.16125
rclavicle 5.26779e-014 -5.725e-014
rhumerus -34.5794 -20.3006 -71.2027
rradius 27.1912
rwrist -0.191133
rhand -32.4908 14.5742
rfingers 7.12502
rthumb -5.72262 -15.3286
lclavicle 5.26779e-014 -5.725e-014
lhumerus -38.6453 23.5783 73.3182
lradius 36.3096
lwrist -4.8324
lhand -12.8689 31.2157
lfingers 7.12502
lthumb 13.2196 60.7765
rfemur -17.0041 10.0604 15.8451
rtibia 30.9329
rfoot -12.1465 -6.34172
rtoes -0.584147
lfemur -17.009 -19.6626 7.02166
ltibia 37.0753
lfoot -7.8321 2.22738
ltoes -9.28176
3301
root -8.32686 17.9367 8.41428 4.20472 -11.9061 -6.32854
lowerback 8.59709 -1.15779 1.26237
upperback 1.53619 -1.26865 4.92552
thorax -3.14268 -0.634548 4.55877
lowerneck -3.87863 -14.159 -9.30013
upperneck 32.2812 -21.7426 6.6437
head 13.3278 -10.1545 1.12232
rclavicle -1.59028e-014 -7.15625e-015
rhumerus -34.5413 -19.7383 -71.2908
rradius 27.5053
rwrist -0.70169
rhand -32.5803 14.681
rfingers 7.12502
rthumb -5.80897 -15.2194
lclavicle -1.59028e-014 -7.15625e-015
lhumerus -38.9667 23.6888 73.4402
lradius 36.3961
lwrist -4.86446
lhand -12.9731 31.0273
lfingers 7.12502
lthumb 13.1191 60.5946
rfemur -17.2015 9.76126 16.0379
rtibia 30.7661
rfoot -12.0224 -6.03928
rtoes 0.321514
lfemur -17.6229 -19.4235 6.85931
ltibia 37.8244
lfoot -6.48696 3.16195
ltoes -9.03933
3302
root -8.43187 17.9649 8.3849 4.32493 -11.8814 -6.28016
lowerback 8.64676 -1.19959 1.35193
upperback 1.42768 -1.30756 4.94802
thorax -3.28205 -0.652761 4.54036
lowerneck -3.77037 -14.0779 -9.26283
upperneck 32.4241 -21.5617 6.37047
head 13.3031 -10.1029 1.05685
rclavicle -3.97569e-015 4.69132e-014
rhumerus -34.4951 -19.1172 -71.2809
rradius 27.769
rwrist -0.939296
rhand -32.65 14.801
rfingers 7.12502
rthumb -5.87634 -15.0975
lclavicle -3.97569e-015 4.69132e-014
lhumerus -39.3674 23.7991 73.6375
lradius 36.6163
lwrist -5.02925
lhand -13.0554 30.8578
lfingers 7.12502
lthumb 13.0398 60.4302
rfemur -17.2707 9.45629 16.3705
rtibia 30.5924
rfoot -11.9141 -5.76411
rtoes 1.44746
lfemur -18.1877 -19.2208 6.76618
ltibia 38.5608
lfoot -5.16242 4.10634
ltoes -6.97215
3303
root -8.53387 17.9897 8.35382 4.39608 -11.7193 -6.47204
lowerback 8.75695 -1.2944 1.70653
upperback 1.43625 -1.39483 4.99076
thorax -3.33605 -0.699705 4.39772
lowerneck -3.80208 -13.9769 -9.20444
upperneck 32.3422 -21.409 6.39174
head 13.2525 -10.0287 1.08302
rclavicle -1.00386e-014 3.26007e-014
rhumerus -34.1988 -18.6943 -71.397
rradius 27.9975
rwrist -1.08766
rhand -32.6961 14.8754
rfingers 7.12502
rthumb -5.92079 -15.0219
lclavicle -1.00386e-014 3.26007e-014
lhumerus -39.462 23.7801 73.8951
lradius 36.712
lwrist -5.19814
lhand -12.9691 30.8064
lfingers 7.12502
lthumb 13.123 60.3735
rfemur -17.1945 9.19677 16.987
rtibia 30.3854
rfoot -11.7721 -5.67592
rtoes 2.04394
lfemur -18.7157 -19.1807 6.94143
ltibia 39.3226
lfoot -3.92201 5.36594
ltoes -1.41516
3304
root -8.63695 18.0114 8.32359 4.47522 -11.5986 -6.54429
lowerback 8.74291 -1.35368 1.87645
upperback 1.50519 -1.4621 4.99893
thorax -3.25628 -0.735957 4.31534
lowerneck -4.03903 -13.9257 -9.05848
upperneck 32.4357 -21.3456 6.37361
head 13.3124 -9.97255 1.04542
rclavicle -1.59028e-015 3.18055e-015
rhumerus -33.8501 -18.369 -71.5651
rradius 28.3166
rwrist -1.45252
rhand -32.864 14.7548
rfingers 7.12502
rthumb -6.08295 -15.1379
lclavicle -1.59028e-015 3.18055e-015
lhumerus -39.3368 23.7701 74.1866
lradius 36.6094
lwrist -5.41107
lhand -12.9694 30.6185
lfingers 7.12502
lthumb 13.1227 60.1856
rfemur -17.1753 9.1055 17.4529
rtibia 30.1763
rfoot -11.6374 -5.65094
rtoes 2.80948
lfemur -19.2405 -19.1085 6.94075
ltibia 40.1158
lfoot -3.0565 6.83291
ltoes 3.42521
